<svg xmlns="http://www.w3.org/2000/svg" xmlns:xlink="http://www.w3.org/1999/xlink" width="574" zoomAndPan="magnify" viewBox="0 0 430.5 682.499979" height="910" preserveAspectRatio="xMidYMid meet" version="1.0"><defs><clipPath id="38f60628dd"><path d="M 100.96875 114 L 329.757812 114 L 329.757812 388 L 100.96875 388 Z M 100.96875 114 " clip-rule="nonzero"/></clipPath><clipPath id="b06330cddf"><path d="M 91.851562 128 L 215.707031 128 L 215.707031 265 L 91.851562 265 Z M 91.851562 128 " clip-rule="nonzero"/></clipPath><clipPath id="0a3590fb61"><path d="M 75 120 L 202.582031 120 L 202.582031 158 L 75 158 Z M 75 120 " clip-rule="nonzero"/></clipPath><clipPath id="d307d0475c"><path d="M 75 123 L 202 123 L 202 163.738281 L 75 163.738281 Z M 75 123 " clip-rule="nonzero"/></clipPath><clipPath id="68525923ea"><path d="M 360.375 209.925781 L 427.464844 209.925781 L 427.464844 320.019531 L 360.375 320.019531 Z M 360.375 209.925781 " clip-rule="nonzero"/></clipPath><clipPath id="bb8f090607"><path d="M 3.875 209.925781 L 70.105469 209.925781 L 70.105469 320.019531 L 3.875 320.019531 Z M 3.875 209.925781 " clip-rule="nonzero"/></clipPath><clipPath id="9dd8bf1afc"><path d="M 0 435.921875 L 430 435.921875 L 430 681.855469 L 0 681.855469 Z M 0 435.921875 " clip-rule="nonzero"/></clipPath></defs><g clip-path="url(#38f60628dd)"><path fill="#000000" d="M 300.265625 114.117188 L 209.394531 114.117188 L 209.394531 259.769531 C 209.394531 264.621094 209.101562 268.417969 208.75 271.457031 L 189.324219 247.558594 L 100.96875 259.59375 L 101.726562 270.519531 C 103.015625 289.042969 107.460938 304.992188 114.894531 317.902344 C 119.457031 325.789062 150.410156 364.644531 177.152344 377.789062 C 190.960938 384.566406 209.394531 387.894531 233.441406 387.894531 C 256.496094 387.894531 275.925781 382.695312 291.195312 372.414062 C 306.585938 362.015625 317.058594 348.925781 322.324219 333.621094 C 327.183594 319.304688 329.582031 299.558594 329.582031 273.265625 L 329.582031 143.332031 Z M 300.265625 114.117188 " fill-opacity="1" fill-rule="nonzero"/></g><path fill="#ffffff" d="M 221.097656 125.804688 L 288.5625 125.804688 L 288.5625 243.9375 C 288.5625 268.710938 286.339844 287.640625 281.949219 300.550781 C 277.5625 313.519531 268.667969 324.445312 255.328125 333.445312 C 241.984375 342.441406 224.957031 346.941406 204.128906 346.941406 C 182.125 346.941406 165.097656 343.960938 153.042969 338.058594 C 140.933594 332.101562 131.628906 323.453125 125.015625 312.003906 C 118.460938 300.609375 114.542969 286.46875 113.371094 269.644531 L 177.679688 260.878906 C 177.796875 270.460938 178.613281 277.589844 180.195312 282.265625 C 181.773438 286.9375 184.464844 290.675781 188.210938 293.539062 C 190.785156 295.410156 194.472656 296.34375 199.210938 296.34375 C 206.761719 296.34375 212.261719 293.539062 215.769531 287.988281 C 219.28125 282.382812 221.039062 272.972656 221.039062 259.769531 L 221.039062 125.804688 Z M 221.097656 125.804688 " fill-opacity="1" fill-rule="nonzero"/><g clip-path="url(#b06330cddf)"><path fill="#000000" d="M 210.683594 203.363281 C 209.007812 200.605469 206.84375 198.046875 204.214844 195.746094 C 203.320312 194.742188 202.367188 193.792969 201.328125 192.871094 C 200.433594 191.867188 199.480469 190.917969 198.441406 189.996094 C 197.546875 188.992188 196.59375 188.042969 195.554688 187.121094 C 195.351562 186.921875 195.179688 186.691406 194.976562 186.492188 L 212.964844 185.425781 L 212.210938 179.332031 C 210.828125 168.121094 206.667969 159.414062 199.828125 153.375 C 198.699219 152.371094 192.148438 143.515625 182.503906 136.703125 C 174.363281 130.984375 162.671875 128.050781 147.800781 128.050781 C 135.703125 128.050781 126.292969 129.574219 119.074219 132.738281 C 111.625 135.984375 105.910156 140.554688 102.097656 146.390625 C 98.289062 152.195312 96.355469 158.492188 96.355469 165.105469 C 96.355469 175.019531 100.078125 183.328125 107.382812 189.796875 C 108.277344 190.800781 109.230469 191.75 110.269531 192.671875 C 111.164062 193.675781 112.117188 194.625 113.15625 195.546875 C 114.050781 196.550781 115.003906 197.5 116.042969 198.421875 C 116.59375 199.050781 117.199219 199.628906 117.804688 200.230469 L 91.820312 201.839844 L 92.3125 207.703125 C 93.351562 219.835938 97.941406 230.039062 105.9375 238.003906 C 106.371094 238.433594 115.726562 247.746094 120.375 252.375 C 128.601562 260.566406 142.375 264.5625 162.410156 264.5625 C 173.582031 264.5625 183.054688 262.894531 190.617188 259.589844 C 198.46875 256.171875 204.675781 251.023438 209.09375 244.296875 C 213.511719 237.570312 215.761719 230.125 215.761719 222.164062 C 215.792969 215.292969 214.058594 208.96875 210.683594 203.363281 Z M 149.679688 217.59375 L 149.621094 217.21875 C 150.023438 217.335938 150.488281 217.421875 150.890625 217.535156 C 150.542969 217.566406 150.109375 217.59375 149.679688 217.59375 Z M 149.679688 217.59375 " fill-opacity="1" fill-rule="nonzero"/></g><path fill="#ffffff" d="M 98.113281 207.214844 L 129.699219 205.234375 C 130.390625 210.347656 131.777344 214.230469 133.886719 216.902344 C 137.292969 221.242188 142.199219 223.398438 148.550781 223.398438 C 153.285156 223.398438 156.953125 222.308594 159.523438 220.09375 C 162.09375 217.878906 163.363281 215.324219 163.363281 212.390625 C 163.363281 209.628906 162.148438 207.128906 159.695312 204.945312 C 157.242188 202.761719 151.582031 200.691406 142.691406 198.734375 C 128.140625 195.488281 117.746094 191.148438 111.539062 185.742188 C 105.273438 180.339844 102.15625 173.46875 102.15625 165.105469 C 102.15625 159.613281 103.746094 154.410156 106.949219 149.523438 C 110.152344 144.636719 114.976562 140.785156 121.382812 137.996094 C 127.792969 135.207031 136.597656 133.800781 147.800781 133.800781 C 161.542969 133.800781 171.996094 136.328125 179.214844 141.417969 C 186.429688 146.503906 190.703125 154.582031 192.089844 165.679688 L 160.792969 167.488281 C 159.957031 162.660156 158.222656 159.183594 155.566406 156.96875 C 152.910156 154.785156 149.214844 153.691406 144.539062 153.691406 C 140.671875 153.691406 137.785156 154.496094 135.820312 156.136719 C 133.855469 157.773438 132.875 159.757812 132.875 162.085938 C 132.875 163.78125 133.683594 165.332031 135.300781 166.683594 C 136.859375 168.09375 140.582031 169.414062 146.445312 170.625 C 160.964844 173.726562 171.359375 176.890625 177.625 180.082031 C 183.890625 183.269531 188.480469 187.210938 191.339844 191.921875 C 194.195312 196.636719 195.613281 201.925781 195.613281 207.761719 C 195.613281 214.632812 193.707031 220.957031 189.894531 226.734375 C 186.085938 232.511719 180.773438 236.910156 173.929688 239.898438 C 167.085938 242.890625 158.453125 244.382812 148.0625 244.382812 C 129.785156 244.382812 117.140625 240.878906 110.097656 233.863281 C 103.050781 226.847656 99.039062 218.023438 98.113281 207.214844 Z M 98.113281 207.214844 " fill-opacity="1" fill-rule="nonzero"/><path fill="#100f0d" d="M 93.714844 122.523438 C 93.179688 124.785156 93.714844 140.515625 93.714844 140.515625 C 131.410156 120.476562 179.542969 120.394531 179.542969 120.394531 C 179.542969 120.394531 177.375 111.425781 169.984375 98.011719 C 162.597656 84.597656 145.652344 85.648438 131.433594 88.234375 C 117.21875 90.820312 97.019531 103.585938 97.019531 103.585938 C 89.109375 105.203125 92.921875 110.335938 93.476562 111.628906 C 94.027344 112.921875 94.25 120.261719 93.714844 122.523438 " fill-opacity="1" fill-rule="evenodd"/><g clip-path="url(#0a3590fb61)"><path fill="#d3d2d2" d="M 202.234375 125.769531 C 202.234375 125.769531 197.253906 118.78125 179.542969 120.394531 C 179.542969 120.394531 131.410156 120.476562 93.714844 140.515625 C 93.714844 140.515625 70.316406 151.628906 76.179688 157.488281 C 76.179688 157.488281 73.96875 154.132812 80.59375 150.132812 C 87.222656 146.132812 102.078125 139.910156 102.078125 139.910156 C 102.078125 139.910156 134.648438 127.667969 148.300781 126.296875 C 161.953125 124.921875 196.972656 120.152344 201.550781 127.832031 C 201.550781 127.832031 202.355469 127.507812 202.234375 125.769531 " fill-opacity="1" fill-rule="evenodd"/></g><g clip-path="url(#d307d0475c)"><path fill="#100f0d" d="M 148.300781 126.296875 C 134.648438 127.667969 102.078125 139.910156 102.078125 139.910156 C 102.078125 139.910156 87.222656 146.132812 80.59375 150.132812 C 74.179688 154.007812 76.046875 157.273438 76.171875 157.476562 L 76.179688 157.488281 C 83.324219 163.710938 99.148438 162.984375 99.148438 162.984375 C 92.964844 158.1875 99.710938 153.125 99.710938 153.125 C 124.128906 137.394531 157.269531 135.347656 167.015625 134.699219 C 176.761719 134.054688 182.113281 135.992188 184.308594 137.984375 C 186.503906 139.980469 183.667969 144.71875 183.667969 144.71875 C 199.464844 141.757812 201.550781 127.832031 201.550781 127.832031 C 196.972656 120.152344 161.953125 124.921875 148.300781 126.296875 " fill-opacity="1" fill-rule="evenodd"/></g><g clip-path="url(#68525923ea)"><path fill="#000000" d="M 363.621094 316.820312 C 363.09375 316.308594 362.628906 315.753906 362.214844 315.148438 C 361.804688 314.546875 361.457031 313.910156 361.171875 313.238281 C 360.886719 312.566406 360.671875 311.875 360.527344 311.164062 C 360.382812 310.453125 360.3125 309.730469 360.3125 309.003906 C 360.3125 308.277344 360.382812 307.558594 360.527344 306.847656 C 360.671875 306.132812 360.886719 305.441406 361.171875 304.773438 C 361.457031 304.101562 361.804688 303.464844 362.214844 302.859375 C 362.628906 302.257812 363.09375 301.699219 363.621094 301.1875 L 400.519531 264.972656 L 363.621094 228.753906 C 363.09375 228.242188 362.628906 227.683594 362.214844 227.082031 C 361.804688 226.476562 361.457031 225.839844 361.171875 225.171875 C 360.886719 224.5 360.671875 223.808594 360.527344 223.097656 C 360.382812 222.382812 360.3125 221.664062 360.3125 220.9375 C 360.3125 220.210938 360.382812 219.492188 360.527344 218.777344 C 360.671875 218.066406 360.886719 217.375 361.171875 216.703125 C 361.457031 216.03125 361.804688 215.394531 362.214844 214.792969 C 362.628906 214.191406 363.09375 213.632812 363.621094 213.121094 C 364.140625 212.605469 364.707031 212.144531 365.316406 211.738281 C 365.929688 211.332031 366.578125 210.992188 367.257812 210.710938 C 367.9375 210.433594 368.640625 210.222656 369.367188 210.078125 C 370.089844 209.9375 370.820312 209.863281 371.558594 209.863281 C 372.296875 209.863281 373.027344 209.9375 373.75 210.078125 C 374.472656 210.222656 375.175781 210.433594 375.859375 210.710938 C 376.539062 210.992188 377.1875 211.332031 377.800781 211.738281 C 378.410156 212.144531 378.976562 212.605469 379.496094 213.121094 L 424.222656 257.15625 C 424.746094 257.667969 425.214844 258.222656 425.625 258.828125 C 426.039062 259.429688 426.386719 260.066406 426.671875 260.738281 C 426.953125 261.410156 427.167969 262.101562 427.3125 262.8125 C 427.457031 263.523438 427.53125 264.246094 427.53125 264.972656 C 427.53125 265.699219 427.457031 266.417969 427.3125 267.128906 C 427.167969 267.84375 426.953125 268.535156 426.671875 269.203125 C 426.386719 269.875 426.039062 270.511719 425.625 271.117188 C 425.214844 271.71875 424.746094 272.277344 424.222656 272.789062 L 379.496094 316.820312 C 378.976562 317.335938 378.410156 317.796875 377.800781 318.203125 C 377.1875 318.609375 376.539062 318.953125 375.859375 319.230469 C 375.175781 319.511719 374.472656 319.722656 373.75 319.863281 C 373.027344 320.007812 372.296875 320.078125 371.558594 320.078125 C 370.820312 320.078125 370.089844 320.007812 369.367188 319.863281 C 368.640625 319.722656 367.9375 319.511719 367.257812 319.230469 C 366.578125 318.953125 365.929688 318.609375 365.316406 318.203125 C 364.707031 317.796875 364.140625 317.335938 363.621094 316.820312 Z M 363.621094 316.820312 " fill-opacity="1" fill-rule="nonzero"/></g><g clip-path="url(#bb8f090607)"><path fill="#000000" d="M 66.859375 316.820312 C 67.386719 316.308594 67.851562 315.753906 68.265625 315.148438 C 68.675781 314.546875 69.023438 313.910156 69.308594 313.238281 C 69.59375 312.566406 69.808594 311.875 69.953125 311.164062 C 70.097656 310.453125 70.167969 309.730469 70.167969 309.003906 C 70.167969 308.277344 70.097656 307.558594 69.953125 306.847656 C 69.808594 306.132812 69.59375 305.441406 69.308594 304.773438 C 69.023438 304.101562 68.675781 303.464844 68.265625 302.859375 C 67.851562 302.257812 67.386719 301.699219 66.859375 301.1875 L 29.960938 264.972656 L 66.859375 228.753906 C 67.386719 228.242188 67.851562 227.683594 68.265625 227.082031 C 68.675781 226.476562 69.023438 225.839844 69.308594 225.171875 C 69.59375 224.5 69.808594 223.808594 69.953125 223.097656 C 70.097656 222.382812 70.167969 221.664062 70.167969 220.9375 C 70.167969 220.210938 70.097656 219.492188 69.953125 218.777344 C 69.808594 218.066406 69.59375 217.375 69.308594 216.703125 C 69.023438 216.03125 68.675781 215.394531 68.265625 214.792969 C 67.851562 214.191406 67.386719 213.632812 66.859375 213.121094 C 66.339844 212.605469 65.777344 212.144531 65.164062 211.738281 C 64.550781 211.332031 63.902344 210.992188 63.222656 210.710938 C 62.542969 210.433594 61.839844 210.222656 61.113281 210.078125 C 60.390625 209.9375 59.660156 209.863281 58.921875 209.863281 C 58.183594 209.863281 57.453125 209.9375 56.730469 210.078125 C 56.007812 210.222656 55.304688 210.433594 54.621094 210.710938 C 53.941406 210.992188 53.292969 211.332031 52.683594 211.738281 C 52.070312 212.144531 51.503906 212.605469 50.984375 213.121094 L 6.257812 257.15625 C 5.734375 257.667969 5.265625 258.222656 4.855469 258.828125 C 4.441406 259.429688 4.09375 260.066406 3.808594 260.738281 C 3.527344 261.410156 3.3125 262.101562 3.167969 262.8125 C 3.023438 263.523438 2.949219 264.246094 2.949219 264.972656 C 2.949219 265.699219 3.023438 266.417969 3.167969 267.128906 C 3.3125 267.84375 3.527344 268.535156 3.808594 269.203125 C 4.09375 269.875 4.441406 270.511719 4.855469 271.117188 C 5.265625 271.71875 5.734375 272.277344 6.257812 272.789062 L 50.984375 316.820312 C 51.503906 317.335938 52.070312 317.796875 52.683594 318.203125 C 53.292969 318.609375 53.941406 318.953125 54.621094 319.230469 C 55.304688 319.511719 56.007812 319.722656 56.730469 319.863281 C 57.453125 320.007812 58.183594 320.078125 58.921875 320.078125 C 59.660156 320.078125 60.390625 320.007812 61.113281 319.863281 C 61.839844 319.722656 62.542969 319.511719 63.222656 319.230469 C 63.902344 318.953125 64.550781 318.609375 65.164062 318.203125 C 65.777344 317.796875 66.339844 317.335938 66.859375 316.820312 Z M 66.859375 316.820312 " fill-opacity="1" fill-rule="nonzero"/></g><g clip-path="url(#9dd8bf1afc)"><path fill="#000000" d="M 66.265625 435.855469 C 66.265625 437.757812 66.265625 439.660156 66.265625 441.5625 L 66.265625 441.566406 L 56.289062 441.5625 C 56.289062 443.089844 56.289062 444.617188 56.289062 446.144531 L 56.289062 446.148438 L 46.3125 445.84375 L 47.027344 605.625 L 32.0625 554.265625 L 24.726562 554.019531 L 24.722656 554.023438 C 24.722656 548.707031 24.722656 543.390625 24.722656 538.074219 L 0.164062 538.074219 C 0.164062 543.117188 0.164062 548.160156 0.164062 553.203125 L -10.6875 552.839844 L -13.539062 520.027344 L -15.070312 520.058594 L -15.070312 520.0625 C -15.070312 519.003906 -15.070312 517.945312 -15.070312 516.886719 L -37.082031 516.886719 C -37.082031 518.097656 -37.082031 519.308594 -37.082031 520.519531 L -37.085938 520.519531 L -47.742188 520.742188 L -51.546875 577.90625 L -56.550781 577.902344 L -66.710938 577.902344 C -66.710938 583.789062 -66.710938 589.671875 -66.710938 595.554688 L -66.710938 595.558594 L -83.070312 595.460938 L -82.65625 682.660156 L 429.652344 681.949219 L 427.515625 472.949219 L 424.675781 472.707031 L 424.667969 472.710938 C 424.667969 463.039062 424.664062 453.371094 424.664062 443.703125 L 410.414062 443.703125 C 410.414062 452.964844 410.414062 462.230469 410.414062 471.492188 L 405.664062 471.085938 L 405.65625 471.089844 C 405.65625 460.082031 405.65625 449.078125 405.65625 438.074219 L 400.574219 438.074219 C 400.574219 448.933594 400.574219 459.792969 400.574219 470.652344 L 400.574219 470.65625 L 394.027344 470.097656 L 395.507812 551.632812 L 386.183594 551.632812 C 386.183594 563.804688 386.183594 575.976562 386.183594 588.148438 L 386.175781 588.148438 L 376.214844 588.503906 L 376.214844 588.507812 L 376.214844 542.140625 L 369.808594 542.007812 L 369.800781 542.011719 C 369.800781 536.824219 369.800781 531.632812 369.800781 526.449219 L 361.964844 526.449219 L 354.125 526.445312 C 354.125 531.527344 354.125 536.609375 354.125 541.6875 L 354.125 541.691406 L 347.007812 541.542969 L 347 541.542969 C 347 535.5625 347 529.578125 347 523.59375 L 346.992188 523.597656 C 348.894531 523.59375 350.796875 523.59375 352.699219 523.59375 C 352.699219 520.503906 352.699219 517.414062 352.699219 514.320312 L 337.738281 514.320312 C 337.738281 517.414062 337.738281 520.503906 337.738281 523.59375 C 339.871094 523.59375 342.007812 523.59375 344.140625 523.59375 L 344.152344 523.597656 C 344.152344 529.558594 344.152344 535.519531 344.152344 541.484375 L 341.300781 541.425781 L 341.300781 554.175781 L 337.738281 554.175781 C 337.738281 549.925781 337.738281 545.675781 337.738281 541.425781 L 333.460938 541.425781 C 333.460938 555.453125 333.460938 569.484375 333.460938 583.511719 C 334.886719 583.511719 336.3125 583.511719 337.738281 583.511719 C 337.738281 580.230469 337.738281 576.949219 337.738281 573.667969 L 337.730469 573.667969 C 338.917969 573.667969 340.105469 573.667969 341.292969 573.667969 L 341.300781 573.667969 L 341.300781 641.292969 L 327.789062 641.289062 L 327.78125 641.292969 C 327.78125 635.699219 327.78125 630.105469 327.78125 624.515625 L 314.136719 624.515625 L 312.085938 581.371094 L 307.105469 581.167969 L 307.097656 581.167969 C 307.097656 577.433594 307.097656 573.695312 307.097656 569.960938 L 276.460938 569.960938 C 276.460938 567.105469 276.460938 564.253906 276.460938 561.398438 L 260.070312 561.398438 C 260.070312 564.253906 260.070312 567.105469 260.070312 569.957031 L 260.070312 569.960938 L 250.097656 569.957031 C 250.097656 572.917969 250.097656 575.878906 250.097656 578.839844 L 242.257812 578.519531 L 240.121094 607.050781 L 236.347656 610.527344 L 236.347656 610.53125 C 236.347656 586.941406 236.347656 563.355469 236.347656 539.769531 L 236.339844 539.769531 C 237.753906 539.769531 239.167969 539.769531 240.582031 539.769531 C 240.582031 534.683594 240.582031 529.597656 240.582031 524.515625 L 237.195312 524.515625 C 237.195312 522.253906 237.195312 519.996094 237.195312 517.734375 L 227.035156 517.734375 C 227.035156 519.996094 227.035156 522.253906 227.035156 524.515625 L 221.957031 524.515625 C 221.957031 529.597656 221.957031 534.683594 221.957031 539.769531 C 223.929688 539.769531 225.902344 539.769531 227.875 539.769531 L 227.882812 539.769531 C 227.882812 565.960938 227.882812 592.152344 227.882812 618.339844 L 227.875 618.34375 L 213.046875 632.015625 L 213.046875 478.65625 L 206.675781 478.191406 L 206.667969 478.195312 C 206.667969 473.828125 206.667969 469.464844 206.667969 465.101562 L 203.078125 465.101562 L 203.070312 465.105469 C 203.070312 461.539062 203.070312 457.96875 203.070312 454.402344 L 198.792969 454.402344 C 198.792969 457.96875 198.792969 461.535156 198.792969 465.101562 L 198.792969 465.105469 L 195.960938 465.101562 L 185.257812 465.101562 C 185.257812 468.945312 185.257812 472.789062 185.257812 476.632812 L 173.855469 475.800781 L 173.855469 581.371094 L 151.703125 580.578125 L 151.695312 580.582031 C 151.695312 575.734375 151.695312 570.886719 151.695312 566.039062 L 133.675781 566.039062 L 133.675781 566.042969 L 132.527344 508.613281 L 93.339844 507.1875 L 93.339844 447.269531 L 88.359375 447.117188 L 88.351562 447.121094 C 88.351562 445.269531 88.351562 443.417969 88.351562 441.566406 L 85.507812 441.5625 L 85.503906 441.566406 C 85.503906 439.664062 85.503906 437.761719 85.503906 435.859375 L 75.882812 435.859375 Z M 66.265625 435.855469 " fill-opacity="1" fill-rule="nonzero"/></g><path fill="#ffffff" d="M 53.644531 457.335938 L 53.644531 461.84375 L 58.09375 461.847656 L 58.09375 457.335938 Z M 64.289062 458.1875 L 64.289062 462.660156 L 68.742188 462.660156 L 68.742188 458.1875 Z M 80.046875 463.304688 L 80.046875 468.550781 L 84.5 468.550781 L 84.5 463.304688 Z M 53.644531 468.609375 L 53.644531 473.117188 L 58.09375 473.121094 L 58.09375 468.609375 Z M 407.832031 479.082031 L 407.832031 483.257812 L 411.949219 483.261719 L 411.949219 479.082031 Z M 418.457031 479.082031 L 418.457031 483.28125 L 422.574219 483.28125 L 422.574219 479.082031 Z M 64.289062 480.542969 L 64.289062 485.011719 L 68.742188 485.015625 L 68.742188 480.542969 Z M 179.128906 483.960938 L 179.128906 487.679688 L 182.808594 487.683594 L 182.808594 483.960938 Z M 202.027344 486.441406 L 202.027344 490.257812 L 205.707031 490.257812 L 205.707031 486.441406 Z M 407.832031 489.523438 L 407.832031 493.699219 L 411.949219 493.703125 L 411.949219 489.523438 Z M 80.046875 489.527344 L 80.046875 494.769531 L 84.5 494.773438 L 84.5 489.527344 Z M 58.09375 491.15625 L 53.644531 491.15625 L 53.644531 495.664062 L 58.09375 495.667969 Z M 64.289062 491.71875 L 64.289062 496.1875 L 68.742188 496.191406 L 68.742188 491.71875 Z M 179.128906 493.257812 L 179.128906 496.976562 L 182.808594 496.980469 L 182.808594 493.257812 Z M 192.746094 495.734375 L 192.746094 499.554688 L 196.425781 499.554688 L 196.425781 495.734375 Z M 202.027344 495.980469 L 202.027344 499.796875 L 205.707031 499.796875 L 205.707031 495.980469 Z M 418.457031 500.070312 L 418.457031 504.269531 L 422.574219 504.273438 L 422.574219 500.070312 Z M 53.644531 502.429688 L 53.644531 506.9375 L 58.09375 506.9375 L 58.09375 502.429688 Z M 80.046875 502.636719 L 80.046875 507.882812 L 84.5 507.882812 L 84.5 502.636719 Z M 192.746094 505.285156 L 192.746094 509.105469 L 196.425781 509.105469 L 196.425781 505.285156 Z M 202.027344 505.519531 L 202.027344 509.335938 L 205.707031 509.335938 L 205.707031 505.519531 Z M 407.832031 510.410156 L 407.832031 514.585938 L 411.949219 514.585938 L 411.949219 510.410156 Z M 418.457031 510.566406 L 418.457031 514.765625 L 422.574219 514.765625 L 422.574219 510.566406 Z M 179.128906 511.851562 L 179.128906 515.570312 L 182.808594 515.570312 L 182.808594 511.851562 Z M 82.273438 513.523438 L 82.273438 517.976562 Z M 202.027344 515.058594 L 202.027344 518.875 L 205.707031 518.875 L 205.707031 515.058594 Z M 102.097656 516.726562 L 102.097656 522.671875 L 108.03125 522.675781 L 108.03125 516.726562 Z M 97.808594 524.84375 L 103.738281 524.84375 Z M 192.746094 524.382812 L 192.746094 528.203125 L 196.425781 528.207031 L 196.425781 524.382812 Z M 53.644531 524.972656 L 53.644531 529.484375 L 58.09375 529.484375 L 58.09375 524.972656 Z M 64.289062 525.246094 L 64.289062 529.71875 L 68.742188 529.71875 L 68.742188 525.246094 Z M 179.128906 530.441406 L 179.128906 534.160156 L 182.808594 534.164062 L 182.808594 530.441406 Z M 102.097656 531.59375 L 102.097656 537.539062 L 108.03125 537.539062 L 108.03125 531.59375 Z M 192.746094 533.933594 L 192.746094 537.753906 L 196.425781 537.753906 L 196.425781 533.933594 Z M -25.234375 534.429688 L -25.234375 540.273438 L -19.726562 540.277344 L -19.726562 534.429688 Z M 53.644531 536.246094 L 53.644531 540.757812 L 58.09375 540.757812 L 58.09375 536.246094 Z M 64.289062 536.421875 L 64.289062 540.894531 L 68.742188 540.894531 L 68.742188 536.421875 Z M 119.265625 539.097656 L 119.265625 545.753906 L 125.199219 545.753906 L 125.199219 539.097656 Z M 418.457031 542.054688 L 418.457031 546.25 L 422.574219 546.253906 L 422.574219 542.054688 Z M 192.746094 543.484375 L 192.746094 547.304688 L 196.425781 547.304688 L 196.425781 543.484375 Z M 202.027344 543.675781 L 202.027344 547.492188 L 205.707031 547.492188 L 205.707031 543.675781 Z M 64.289062 547.601562 L 64.289062 552.070312 L 68.742188 552.074219 L 68.742188 547.601562 Z M 102.097656 546.457031 L 102.097656 552.402344 L 108.03125 552.40625 L 108.03125 546.457031 Z M 179.128906 549.035156 L 179.128906 552.753906 L 182.808594 552.753906 L 182.808594 549.035156 Z M 355.558594 549.183594 L 355.558594 553.675781 L 359.675781 553.679688 L 359.675781 549.183594 Z M 365.871094 549.183594 L 365.871094 553.675781 L 369.988281 553.679688 L 369.988281 549.183594 Z M 10.351562 546.300781 L 10.351562 554.675781 L 15.859375 554.675781 L 15.859375 546.300781 Z M 407.832031 552.179688 L 407.832031 556.355469 L 411.949219 556.355469 L 411.949219 552.179688 Z M 418.457031 552.546875 L 418.457031 556.746094 L 422.574219 556.75 L 422.574219 552.546875 Z M 202.027344 553.214844 L 202.027344 557.03125 L 205.707031 557.03125 L 205.707031 553.214844 Z M -5.464844 558.175781 L -5.464844 558.179688 L 0.0429688 558.179688 L 0.0429688 558.175781 Z M 179.128906 558.332031 L 179.128906 562.050781 L 182.808594 562.050781 L 182.808594 558.332031 Z M 64.289062 558.777344 L 64.289062 563.246094 L 68.742188 563.25 L 68.742188 558.777344 Z M 53.644531 558.792969 L 53.644531 563.300781 L 58.09375 563.304688 L 58.09375 558.792969 Z M 344.507812 559.882812 L 344.507812 564.457031 L 348.625 564.457031 L 348.625 559.882812 Z M 365.871094 560.414062 L 365.871094 564.90625 L 369.988281 564.910156 L 369.988281 560.414062 Z M 192.746094 562.585938 L 192.746094 566.40625 L 196.425781 566.40625 L 196.425781 562.585938 Z M 202.027344 562.753906 L 202.027344 566.570312 L 205.707031 566.570312 L 205.707031 562.753906 Z M 407.832031 562.621094 L 407.832031 566.796875 L 411.949219 566.800781 L 411.949219 562.621094 Z M 102.097656 561.324219 L 102.097656 567.269531 L 108.03125 567.269531 L 108.03125 561.324219 Z M -25.234375 563.664062 L -25.234375 569.511719 L -19.726562 569.511719 L -19.726562 563.664062 Z M 16.496094 564.46875 L 16.496094 569.980469 L 23.953125 569.980469 L 23.953125 564.46875 Z M 344.507812 571.316406 L 344.507812 575.890625 L 348.625 575.890625 L 348.625 571.316406 Z M 192.746094 572.132812 L 192.746094 575.953125 L 196.425781 575.957031 L 196.425781 572.132812 Z M 202.027344 572.292969 L 202.027344 576.109375 L 205.707031 576.109375 L 205.707031 572.292969 Z M 355.558594 571.640625 L 355.558594 576.132812 L 359.675781 576.132812 L 359.675781 571.640625 Z M 119.265625 572.378906 L 119.269531 579.035156 L 125.199219 579.039062 L 125.199219 572.378906 Z M 179.128906 576.921875 L 179.128906 580.640625 L 182.808594 580.644531 L 182.808594 576.921875 Z M 143.796875 577.273438 L 137.867188 577.445312 L 138.039062 583.464844 L 143.96875 583.292969 Z M -25.234375 578.28125 L -25.234375 584.128906 L -19.726562 584.132812 L -19.726562 578.28125 Z M 64.289062 581.128906 L 64.289062 585.601562 L 68.742188 585.601562 L 68.742188 581.128906 Z M 202.027344 581.832031 L 202.027344 585.648438 L 205.707031 585.648438 L 205.707031 581.832031 Z M 53.644531 581.339844 L 53.644531 585.847656 L 58.09375 585.851562 L 58.09375 581.339844 Z M 355.558594 582.867188 L 355.558594 587.359375 L 359.675781 587.359375 L 359.675781 582.867188 Z M 365.871094 582.875 L 365.871094 587.367188 L 369.988281 587.367188 L 369.988281 582.875 Z M 418.457031 584.035156 L 418.457031 588.230469 L 422.574219 588.234375 L 422.574219 584.035156 Z M 10.273438 582.5625 L 9.707031 582.5625 L 9.710938 584.1875 L 9.222656 584.1875 L 9.710938 584.1875 L 9.714844 584.257812 L 8.023438 584.257812 L 8.023438 589.769531 L 14.804688 589.769531 L 14.804688 584.257812 L 10.277344 584.257812 L 10.277344 584.1875 L 14.730469 584.1875 L 10.277344 584.1875 Z M 24.976562 584.257812 L 24.976562 589.769531 L 31.757812 589.773438 L 31.757812 584.257812 Z M 269.039062 584.6875 L 269.039062 590.199219 L 274.871094 590.199219 L 274.871094 584.6875 Z M 298.195312 584.6875 L 298.195312 590.199219 L 304.027344 590.203125 L 304.027344 584.6875 Z M 254.460938 584.6875 L 254.460938 590.199219 L 260.292969 590.203125 L 260.292969 584.6875 Z M 119.269531 589.019531 L 119.269531 595.675781 L 125.199219 595.679688 L 125.199219 589.019531 Z M 102.097656 591.054688 L 102.097656 597 L 108.03125 597 L 108.03125 591.054688 Z M 53.644531 592.613281 L 53.644531 597.121094 L 58.09375 597.125 L 58.09375 592.613281 Z M 407.832031 593.949219 L 407.832031 598.125 L 411.949219 598.128906 L 411.949219 593.949219 Z M 144.230469 592.320312 L 138.300781 592.492188 L 138.472656 598.511719 L 144.402344 598.339844 Z M 355.558594 594.09375 L 355.558594 598.585938 L 359.675781 598.589844 L 359.675781 594.09375 Z M 365.871094 594.101562 L 365.871094 598.59375 L 369.988281 598.597656 L 369.988281 594.101562 Z M 344.507812 594.183594 L 344.507812 598.757812 L 348.625 598.757812 L 348.625 594.183594 Z M 179.128906 595.515625 L 179.128906 599.234375 L 182.808594 599.234375 L 182.808594 595.515625 Z M 192.746094 600.785156 L 192.746094 604.605469 L 196.425781 604.605469 L 196.425781 600.785156 Z M 299.050781 601.855469 L 299.050781 607.367188 L 305.914062 607.371094 L 305.914062 601.855469 Z M 247.601562 601.855469 L 247.601562 607.367188 L 254.460938 607.371094 L 254.460938 601.855469 Z M 264.753906 601.855469 L 264.753906 607.367188 L 271.613281 607.371094 L 271.613281 601.855469 Z M 64.289062 603.480469 L 64.289062 607.953125 L 68.742188 607.953125 L 68.742188 603.480469 Z M 53.644531 603.886719 L 53.644531 608.394531 L 58.09375 608.398438 L 58.09375 603.886719 Z M 179.128906 604.8125 L 179.128906 608.53125 L 182.808594 608.53125 L 182.808594 604.8125 Z M 407.832031 604.390625 L 407.832031 608.566406 L 411.949219 608.570312 L 411.949219 604.390625 Z M 418.457031 605.023438 L 418.457031 609.222656 L 422.574219 609.222656 L 422.574219 605.023438 Z M 365.871094 605.332031 L 365.871094 609.824219 L 369.988281 609.824219 L 369.988281 605.332031 Z M 344.507812 605.617188 L 344.507812 610.191406 L 348.625 610.195312 L 348.625 605.617188 Z M 22.707031 606.875 L 22.707031 612.386719 L 28.808594 612.386719 L 28.808594 606.875 Z M 37.957031 606.875 L 37.957031 612.390625 L 44.058594 612.390625 L 44.058594 606.878906 Z M -25.234375 607.519531 L -25.234375 613.367188 L -19.726562 613.367188 L -19.726562 607.519531 Z M 202.027344 610.449219 L 202.027344 614.265625 L 205.707031 614.269531 L 205.707031 610.449219 Z M 418.457031 615.519531 L 418.457031 619.71875 L 422.574219 619.71875 L 422.574219 615.519531 Z M -75.898438 610.496094 L -75.898438 624.457031 L -66.066406 624.457031 L -66.066406 610.496094 Z M 102.097656 620.785156 L 102.097656 626.730469 L 108.03125 626.730469 L 108.03125 620.785156 Z M 179.128906 623.402344 L 179.128906 627.121094 L 182.808594 627.121094 L 182.808594 623.402344 Z M 145.09375 622.421875 L 139.167969 622.589844 L 139.339844 628.609375 L 145.269531 628.441406 Z M 407.832031 625.277344 L 407.832031 629.453125 L 411.949219 629.453125 L 411.949219 625.277344 Z M 418.457031 626.015625 L 418.457031 630.214844 L 422.574219 630.214844 L 422.574219 626.015625 Z M 239.027344 626.464844 L 239.027344 631.976562 L 245.292969 631.976562 L 245.292969 626.464844 Z M 270.355469 626.464844 L 270.355469 631.976562 L 276.617188 631.976562 L 276.617188 626.464844 Z M 286.015625 626.464844 L 286.015625 631.976562 L 292.28125 631.976562 L 292.28125 626.464844 Z M 301.679688 626.464844 L 301.679688 631.976562 L 307.945312 631.976562 L 307.945312 626.464844 Z M 365.871094 627.789062 L 365.871094 632.28125 L 369.988281 632.285156 L 369.988281 627.789062 Z M 344.507812 628.488281 L 344.507812 633.058594 L 348.625 633.0625 L 348.625 628.488281 Z M 192.746094 629.433594 L 192.746094 633.253906 L 196.425781 633.257812 L 196.425781 629.433594 Z M 41.660156 626.980469 L 41.660156 636.816406 L 51.824219 636.816406 L 51.824219 626.980469 Z M -34.582031 626.980469 L -34.582031 636.816406 L -24.414062 636.816406 L -24.414062 626.980469 Z M 16.246094 626.980469 L 16.246094 636.816406 L 26.410156 636.816406 L 26.410156 626.980469 Z M 407.832031 635.71875 L 407.832031 639.894531 L 411.949219 639.898438 L 411.949219 635.71875 Z M 418.457031 636.511719 L 418.457031 640.707031 L 422.574219 640.710938 L 422.574219 636.511719 Z M 344.507812 639.921875 L 344.507812 644.492188 L 348.625 644.496094 L 348.625 639.921875 Z M 407.832031 646.160156 L 407.832031 650.335938 L 411.949219 650.339844 L 411.949219 646.160156 Z M 418.457031 647.003906 L 418.457031 651.203125 L 422.574219 651.207031 L 422.574219 647.003906 Z M 192.746094 648.535156 L 192.746094 652.355469 L 196.425781 652.355469 L 196.425781 648.535156 Z M 202.027344 648.605469 L 202.027344 652.421875 L 205.707031 652.425781 L 205.707031 648.605469 Z M 196.230469 657.261719 L 192.9375 658.910156 Z M -12.605469 649.238281 L -12.605469 659.074219 L -1.484375 659.074219 L -1.484375 649.238281 Z M -40.402344 649.238281 L -40.402344 659.074219 L -29.285156 659.074219 L -29.285156 649.238281 Z M 15.195312 649.238281 L 15.195312 659.074219 L 26.316406 659.074219 L 26.316406 649.238281 Z M 407.832031 656.601562 L 407.832031 660.78125 L 411.949219 660.78125 L 411.949219 656.601562 Z M 182.617188 659.761719 L 179.324219 661.410156 Z M 418.457031 657.5 L 418.457031 661.699219 L 422.574219 661.699219 L 422.574219 657.5 Z M 411.941406 666.875 L 407.839844 667.214844 Z M 105.839844 662.566406 L 105.839844 672.402344 L 119.863281 672.402344 L 119.863281 662.566406 Z M 280.914062 663.558594 L 280.914062 673.398438 L 293.515625 673.398438 L 293.515625 663.558594 Z M 343.921875 663.5625 L 343.921875 673.398438 L 356.523438 673.398438 L 356.523438 663.5625 Z M 343.921875 663.5625 " fill-opacity="1" fill-rule="nonzero"/></svg>